<svg width="445" height="153" viewBox="0 0 445 153" fill="none" xmlns="http://www.w3.org/2000/svg">
<path d="M437.448 62.335L424.529 110.074H408.359L400.831 79.1035L393.045 110.074H376.961L363.957 62.335H378.587L385.345 96.4708L393.387 62.335H408.873L417 96.2997L423.673 62.335H437.448Z" fill="#212121"/>
<path d="M336.179 110.76C331.503 110.76 327.282 109.762 323.518 107.766C319.81 105.769 316.873 102.918 314.706 99.2104C312.595 95.503 311.54 91.1683 311.54 86.2062C311.54 81.3011 312.624 76.995 314.791 73.2876C316.958 69.5233 319.924 66.643 323.689 64.6467C327.453 62.6505 331.674 61.6523 336.351 61.6523C341.028 61.6523 345.248 62.6505 349.013 64.6467C352.777 66.643 355.743 69.5233 357.91 73.2876C360.077 76.995 361.161 81.3011 361.161 86.2062C361.161 91.1113 360.049 95.446 357.825 99.2104C355.657 102.918 352.663 105.769 348.841 107.766C345.077 109.762 340.856 110.76 336.179 110.76ZM336.179 98.0982C338.974 98.0982 341.341 97.0715 343.28 95.0182C345.277 92.9649 346.275 90.0276 346.275 86.2062C346.275 82.3848 345.305 79.4475 343.366 77.3942C341.484 75.3409 339.145 74.3143 336.351 74.3143C333.499 74.3143 331.132 75.3409 329.25 77.3942C327.367 79.3905 326.426 82.3278 326.426 86.2062C326.426 90.0276 327.339 92.9649 329.164 95.0182C331.046 97.0715 333.385 98.0982 336.179 98.0982Z" fill="#212121"/>
<path d="M303.84 46.7627V110.072H289.21V46.7627H303.84Z" fill="#212121"/>
<path d="M282.335 74.4837H274.464V110.074H259.835V74.4837H254.53V62.3351H259.835V60.9662C259.835 55.0916 261.517 50.6428 264.882 47.6199C268.247 44.54 273.181 43 279.683 43C280.767 43 281.565 43.0285 282.079 43.0856V55.4908C279.284 55.3197 277.316 55.719 276.175 56.6886C275.035 57.6582 274.464 59.3978 274.464 61.9073V62.3351H282.335V74.4837Z" fill="#212121"/>
<path d="M230.094 110.76C225.93 110.76 222.223 110.047 218.972 108.621C215.721 107.195 213.154 105.256 211.272 102.804C209.39 100.294 208.335 97.4993 208.106 94.4194H222.565C222.736 96.0734 223.506 97.4137 224.875 98.4404C226.244 99.467 227.926 99.9803 229.923 99.9803C231.748 99.9803 233.145 99.6381 234.115 98.9537C235.141 98.2122 235.655 97.2711 235.655 96.1304C235.655 94.7616 234.942 93.7634 233.516 93.1361C232.09 92.4516 229.78 91.7102 226.586 90.9117C223.164 90.1132 220.312 89.2861 218.031 88.4306C215.749 87.518 213.781 86.1207 212.127 84.2385C210.473 82.2993 209.646 79.7041 209.646 76.4531C209.646 73.7154 210.388 71.2343 211.871 69.01C213.411 66.7285 215.635 64.9319 218.544 63.6201C221.51 62.3083 225.018 61.6523 229.067 61.6523C235.056 61.6523 239.761 63.1353 243.183 66.1011C246.663 69.067 248.659 73.0025 249.172 77.9075H235.655C235.427 76.2535 234.685 74.9417 233.43 73.9721C232.233 73.0025 230.636 72.5176 228.639 72.5176C226.928 72.5176 225.616 72.8599 224.704 73.5443C223.791 74.1717 223.335 75.0557 223.335 76.1965C223.335 77.5653 224.048 78.592 225.474 79.2764C226.957 79.9608 229.238 80.6452 232.318 81.3297C235.854 82.2422 238.735 83.1548 240.959 84.0674C243.183 84.9229 245.123 86.3488 246.777 88.3451C248.488 90.2843 249.372 92.9079 249.429 96.216C249.429 99.0107 248.63 101.52 247.033 103.745C245.493 105.912 243.24 107.623 240.275 108.878C237.366 110.133 233.972 110.76 230.094 110.76Z" fill="#212121"/>
<path d="M200.072 46.7627V110.072H185.442V46.7627H200.072Z" fill="#212121"/>
<path d="M174.842 46.7627V110.072H160.212V46.7627H174.842Z" fill="#212121"/>
<path d="M99.2393 86.1207C99.2393 81.2156 100.152 76.9094 101.977 73.2021C103.859 69.4948 106.397 66.643 109.591 64.6467C112.785 62.6505 116.35 61.6523 120.285 61.6523C123.651 61.6523 126.588 62.3368 129.097 63.7056C131.664 65.0745 133.632 66.8711 135.001 69.0955V62.3368H149.63V110.076H135.001V103.317C133.575 105.541 131.578 107.338 129.012 108.707C126.502 110.076 123.565 110.76 120.2 110.76C116.321 110.76 112.785 109.762 109.591 107.766C106.397 105.712 103.859 102.832 101.977 99.1248C100.152 95.3604 99.2393 91.0257 99.2393 86.1207ZM135.001 86.2062C135.001 82.5559 133.974 79.6756 131.921 77.5653C129.924 75.455 127.472 74.3998 124.563 74.3998C121.654 74.3998 119.173 75.455 117.12 77.5653C115.124 79.6186 114.126 82.4704 114.126 86.1207C114.126 89.7709 115.124 92.6798 117.12 94.8471C119.173 96.9574 121.654 98.0126 124.563 98.0126C127.472 98.0126 129.924 96.9574 131.921 94.8471C133.974 92.7368 135.001 89.8565 135.001 86.2062Z" fill="#212121"/>
<path d="M94.8102 50.0186L79.1539 110.077H61.4443L51.8623 70.5514L41.9381 110.077H24.2285L9 50.0186H24.6563L33.2972 93.7364L43.9914 50.0186H60.0755L70.3419 93.7364L79.0684 50.0186H94.8102Z" fill="#212121"/>
</svg>
